<svg xmlns="http://www.w3.org/2000/svg" xmlns:xlink="http://www.w3.org/1999/xlink" width="500" zoomAndPan="magnify" viewBox="0 0 375 374.999991" height="500" preserveAspectRatio="xMidYMid meet" version="1.0"><defs><clipPath id="4d6e58fd30"><path d="M 120 137 L 301.542969 137 L 301.542969 355.675781 L 120 355.675781 Z M 120 137 " clip-rule="nonzero"/></clipPath></defs><path fill="#d03131" d="M 152.265625 39.230469 C 135.707031 22.695312 108.863281 22.695312 92.304688 39.230469 C 78.011719 53.503906 75.796875 75.867188 87.011719 92.660156 L 122.285156 145.484375 L 157.558594 92.660156 C 168.777344 75.867188 166.558594 53.503906 152.265625 39.230469 Z M 122.285156 90.378906 C 134.386719 90.378906 144.199219 80.582031 144.199219 68.496094 C 144.199219 56.410156 134.386719 46.613281 122.285156 46.613281 C 110.183594 46.613281 100.371094 56.410156 100.371094 68.496094 C 100.371094 80.582031 110.183594 90.378906 122.285156 90.378906 Z M 122.285156 90.378906 " fill-opacity="1" fill-rule="evenodd"/><path fill="#00910e" d="M 289.710938 278.746094 C 277.984375 267.042969 258.972656 267.042969 247.246094 278.746094 C 237.125 288.847656 235.554688 304.679688 243.5 316.566406 L 268.480469 353.957031 L 293.460938 316.566406 C 301.402344 304.679688 299.832031 288.847656 289.710938 278.746094 Z M 268.480469 314.953125 C 277.050781 314.953125 283.996094 308.019531 283.996094 299.460938 C 283.996094 290.90625 277.050781 283.972656 268.480469 283.972656 C 259.90625 283.972656 252.960938 290.90625 252.960938 299.460938 C 252.960938 308.019531 259.90625 314.953125 268.480469 314.953125 Z M 268.480469 314.953125 " fill-opacity="1" fill-rule="evenodd"/><g clip-path="url(#4d6e58fd30)"><path fill="#000000" d="M 121.847656 142.027344 C 126.8125 141.390625 132.039062 140.808594 137.527344 140.277344 C 137.738281 140.257812 137.941406 140.277344 138.140625 140.339844 C 138.339844 140.402344 138.519531 140.496094 138.683594 140.628906 C 138.84375 140.761719 138.972656 140.921875 139.070312 141.105469 C 139.167969 141.292969 139.230469 141.488281 139.25 141.695312 C 139.269531 141.902344 139.25 142.105469 139.1875 142.308594 C 139.125 142.507812 139.03125 142.6875 138.894531 142.847656 C 138.761719 143.011719 138.605469 143.140625 138.421875 143.238281 C 138.234375 143.335938 138.039062 143.394531 137.832031 143.414062 C 132.375 143.941406 127.179688 144.519531 122.25 145.152344 C 122.042969 145.179688 121.839844 145.167969 121.636719 145.113281 C 121.433594 145.058594 121.25 144.964844 121.085938 144.839844 C 120.921875 144.710938 120.785156 144.554688 120.679688 144.375 C 120.578125 144.195312 120.511719 144 120.484375 143.792969 C 120.460938 143.585938 120.472656 143.378906 120.527344 143.179688 C 120.582031 142.976562 120.671875 142.792969 120.800781 142.628906 C 120.929688 142.460938 121.082031 142.328125 121.265625 142.222656 C 121.445312 142.121094 121.640625 142.054688 121.847656 142.027344 Z M 153.285156 138.96875 C 158.523438 138.601562 163.785156 138.296875 169.066406 138.054688 C 169.277344 138.042969 169.480469 138.074219 169.675781 138.144531 C 169.871094 138.21875 170.046875 138.324219 170.203125 138.464844 C 170.355469 138.605469 170.476562 138.769531 170.566406 138.957031 C 170.65625 139.148438 170.703125 139.347656 170.714844 139.554688 C 170.722656 139.765625 170.691406 139.96875 170.621094 140.164062 C 170.550781 140.359375 170.445312 140.535156 170.304688 140.691406 C 170.164062 140.84375 170 140.964844 169.808594 141.054688 C 169.621094 141.144531 169.421875 141.191406 169.210938 141.203125 C 163.953125 141.445312 158.71875 141.75 153.503906 142.113281 C 153.296875 142.128906 153.09375 142.101562 152.894531 142.035156 C 152.695312 141.96875 152.519531 141.867188 152.359375 141.730469 C 152.203125 141.59375 152.078125 141.433594 151.984375 141.246094 C 151.890625 141.058594 151.835938 140.859375 151.820312 140.652344 C 151.808594 140.445312 151.832031 140.242188 151.898438 140.042969 C 151.964844 139.84375 152.066406 139.667969 152.203125 139.507812 C 152.339844 139.351562 152.503906 139.226562 152.691406 139.132812 C 152.878906 139.039062 153.074219 138.984375 153.285156 138.96875 Z M 184.867188 137.519531 C 190.242188 137.40625 195.515625 137.359375 200.683594 137.390625 C 200.890625 137.390625 201.089844 137.429688 201.285156 137.511719 C 201.476562 137.59375 201.648438 137.707031 201.792969 137.855469 C 201.941406 138.003906 202.054688 138.175781 202.132812 138.371094 C 202.210938 138.5625 202.25 138.765625 202.25 138.972656 C 202.25 139.183594 202.207031 139.382812 202.125 139.574219 C 202.046875 139.769531 201.929688 139.9375 201.78125 140.085938 C 201.632812 140.230469 201.460938 140.34375 201.269531 140.421875 C 201.074219 140.503906 200.875 140.542969 200.664062 140.539062 C 195.527344 140.511719 190.28125 140.554688 184.9375 140.671875 C 184.726562 140.675781 184.523438 140.640625 184.332031 140.5625 C 184.136719 140.488281 183.964844 140.378906 183.8125 140.234375 C 183.660156 140.089844 183.542969 139.921875 183.460938 139.730469 C 183.375 139.539062 183.332031 139.335938 183.328125 139.128906 C 183.320312 138.917969 183.359375 138.71875 183.433594 138.523438 C 183.507812 138.328125 183.621094 138.15625 183.765625 138.003906 C 183.910156 137.855469 184.078125 137.734375 184.269531 137.652344 C 184.460938 137.566406 184.660156 137.523438 184.867188 137.519531 Z M 216.496094 137.714844 C 221.992188 137.914062 227.257812 138.207031 232.304688 138.585938 C 232.511719 138.601562 232.710938 138.65625 232.898438 138.75 C 233.085938 138.847656 233.246094 138.972656 233.382812 139.132812 C 233.519531 139.289062 233.617188 139.46875 233.683594 139.667969 C 233.75 139.863281 233.773438 140.070312 233.757812 140.277344 C 233.742188 140.484375 233.6875 140.683594 233.59375 140.867188 C 233.5 141.054688 233.371094 141.21875 233.214844 141.351562 C 233.054688 141.488281 232.875 141.589844 232.679688 141.65625 C 232.480469 141.71875 232.277344 141.746094 232.066406 141.730469 C 227.0625 141.351562 221.832031 141.0625 216.382812 140.863281 C 216.171875 140.855469 215.972656 140.808594 215.785156 140.722656 C 215.59375 140.632812 215.425781 140.515625 215.285156 140.363281 C 215.144531 140.207031 215.035156 140.035156 214.960938 139.839844 C 214.890625 139.640625 214.855469 139.441406 214.863281 139.230469 C 214.871094 139.023438 214.917969 138.824219 215.007812 138.632812 C 215.09375 138.441406 215.214844 138.277344 215.367188 138.132812 C 215.519531 137.992188 215.695312 137.882812 215.890625 137.8125 C 216.085938 137.738281 216.289062 137.707031 216.496094 137.714844 Z M 248.078125 140.167969 C 253.722656 140.886719 258.9375 141.746094 263.726562 142.734375 C 263.929688 142.777344 264.117188 142.859375 264.292969 142.976562 C 264.464844 143.09375 264.609375 143.238281 264.722656 143.414062 C 264.835938 143.585938 264.914062 143.777344 264.953125 143.984375 C 264.992188 144.1875 264.992188 144.394531 264.949219 144.597656 C 264.90625 144.800781 264.828125 144.992188 264.710938 145.164062 C 264.589844 145.335938 264.445312 145.480469 264.269531 145.59375 C 264.097656 145.710938 263.90625 145.785156 263.699219 145.824219 C 263.496094 145.867188 263.289062 145.863281 263.085938 145.820312 C 258.378906 144.847656 253.242188 144.003906 247.679688 143.292969 C 247.472656 143.265625 247.277344 143.199219 247.097656 143.097656 C 246.914062 142.992188 246.761719 142.859375 246.632812 142.691406 C 246.503906 142.527344 246.414062 142.34375 246.359375 142.144531 C 246.304688 141.941406 246.289062 141.738281 246.316406 141.53125 C 246.34375 141.320312 246.40625 141.128906 246.511719 140.945312 C 246.613281 140.765625 246.75 140.609375 246.914062 140.484375 C 247.082031 140.355469 247.261719 140.261719 247.464844 140.207031 C 247.667969 140.152344 247.871094 140.140625 248.078125 140.167969 Z M 279.128906 146.90625 C 285.148438 149.03125 289.957031 151.5 293.550781 154.304688 C 293.714844 154.433594 293.851562 154.585938 293.953125 154.769531 C 294.054688 154.949219 294.121094 155.144531 294.144531 155.351562 C 294.171875 155.558594 294.15625 155.765625 294.101562 155.964844 C 294.046875 156.167969 293.953125 156.351562 293.824219 156.515625 C 293.695312 156.679688 293.539062 156.8125 293.359375 156.917969 C 293.175781 157.019531 292.984375 157.085938 292.773438 157.109375 C 292.566406 157.136719 292.363281 157.121094 292.160156 157.066406 C 291.960938 157.007812 291.777344 156.917969 291.613281 156.789062 C 288.285156 154.195312 283.773438 151.890625 278.078125 149.878906 C 277.878906 149.808594 277.703125 149.703125 277.546875 149.5625 C 277.394531 149.421875 277.269531 149.257812 277.179688 149.070312 C 277.089844 148.882812 277.039062 148.683594 277.027344 148.476562 C 277.015625 148.265625 277.046875 148.0625 277.117188 147.867188 C 277.1875 147.667969 277.289062 147.492188 277.429688 147.339844 C 277.570312 147.183594 277.734375 147.058594 277.921875 146.96875 C 278.113281 146.878906 278.308594 146.828125 278.519531 146.816406 C 278.726562 146.808594 278.929688 146.835938 279.128906 146.90625 Z M 301.53125 168.808594 C 301.542969 172.570312 300.304688 176.589844 297.820312 180.863281 C 297.210938 181.90625 296.511719 183.015625 295.71875 184.191406 C 295.601562 184.363281 295.453125 184.507812 295.28125 184.625 C 295.105469 184.738281 294.917969 184.816406 294.710938 184.855469 C 294.503906 184.894531 294.300781 184.894531 294.097656 184.851562 C 293.890625 184.8125 293.703125 184.730469 293.527344 184.613281 C 293.355469 184.496094 293.210938 184.351562 293.097656 184.175781 C 292.980469 184.003906 292.902344 183.8125 292.863281 183.609375 C 292.824219 183.402344 292.824219 183.199219 292.867188 182.992188 C 292.910156 182.789062 292.988281 182.597656 293.105469 182.425781 C 293.859375 181.308594 294.523438 180.261719 295.09375 179.277344 C 297.292969 175.496094 298.390625 172.011719 298.378906 168.816406 C 298.378906 168.609375 298.417969 168.40625 298.5 168.214844 C 298.578125 168.019531 298.691406 167.851562 298.839844 167.703125 C 298.988281 167.554688 299.15625 167.441406 299.347656 167.359375 C 299.542969 167.277344 299.742188 167.238281 299.953125 167.238281 C 300.160156 167.238281 300.363281 167.277344 300.554688 167.355469 C 300.75 167.433594 300.921875 167.550781 301.066406 167.695312 C 301.214844 167.84375 301.332031 168.011719 301.410156 168.207031 C 301.492188 168.398438 301.53125 168.601562 301.53125 168.808594 Z M 285.9375 196.757812 C 283.546875 199.582031 280.089844 203.546875 275.566406 208.644531 C 275.429688 208.800781 275.265625 208.925781 275.078125 209.015625 C 274.890625 209.105469 274.691406 209.160156 274.480469 209.171875 C 274.273438 209.183594 274.070312 209.15625 273.871094 209.085938 C 273.675781 209.019531 273.5 208.914062 273.339844 208.777344 C 273.183594 208.640625 273.0625 208.476562 272.96875 208.289062 C 272.878906 208.097656 272.828125 207.902344 272.8125 207.691406 C 272.800781 207.484375 272.828125 207.28125 272.898438 207.082031 C 272.964844 206.886719 273.070312 206.710938 273.207031 206.554688 C 277.714844 201.472656 281.15625 197.527344 283.53125 194.722656 C 283.667969 194.5625 283.828125 194.433594 284.011719 194.339844 C 284.199219 194.242188 284.394531 194.1875 284.605469 194.167969 C 284.8125 194.152344 285.015625 194.175781 285.214844 194.238281 C 285.414062 194.300781 285.59375 194.402344 285.753906 194.535156 C 285.914062 194.671875 286.039062 194.832031 286.136719 195.015625 C 286.230469 195.203125 286.289062 195.398438 286.304688 195.609375 C 286.324219 195.816406 286.300781 196.019531 286.234375 196.21875 C 286.171875 196.417969 286.074219 196.597656 285.9375 196.757812 Z M 265.125 220.445312 C 261.269531 224.851562 257.859375 228.835938 254.898438 232.402344 C 254.765625 232.5625 254.609375 232.691406 254.421875 232.789062 C 254.238281 232.886719 254.042969 232.945312 253.832031 232.964844 C 253.625 232.984375 253.421875 232.960938 253.222656 232.902344 C 253.023438 232.839844 252.839844 232.742188 252.679688 232.609375 C 252.519531 232.472656 252.390625 232.316406 252.292969 232.128906 C 252.195312 231.945312 252.136719 231.75 252.117188 231.539062 C 252.097656 231.332031 252.121094 231.128906 252.183594 230.929688 C 252.242188 230.730469 252.339844 230.550781 252.476562 230.390625 C 255.453125 226.804688 258.878906 222.796875 262.753906 218.371094 C 262.890625 218.214844 263.054688 218.089844 263.242188 217.996094 C 263.429688 217.902344 263.628906 217.851562 263.835938 217.835938 C 264.042969 217.824219 264.246094 217.847656 264.445312 217.917969 C 264.644531 217.984375 264.820312 218.085938 264.980469 218.222656 C 265.136719 218.359375 265.261719 218.523438 265.351562 218.710938 C 265.445312 218.898438 265.5 219.097656 265.511719 219.304688 C 265.527344 219.511719 265.5 219.714844 265.433594 219.914062 C 265.367188 220.113281 265.265625 220.289062 265.125 220.445312 Z M 245.125 244.683594 C 241.75 249.140625 238.738281 253.398438 236.082031 257.464844 C 235.96875 257.640625 235.824219 257.789062 235.652344 257.90625 C 235.480469 258.023438 235.292969 258.105469 235.085938 258.148438 C 234.882812 258.191406 234.679688 258.191406 234.472656 258.152344 C 234.265625 258.113281 234.078125 258.039062 233.902344 257.925781 C 233.726562 257.808594 233.582031 257.667969 233.460938 257.496094 C 233.34375 257.320312 233.265625 257.132812 233.222656 256.929688 C 233.179688 256.722656 233.175781 256.519531 233.214844 256.3125 C 233.253906 256.109375 233.328125 255.917969 233.445312 255.742188 C 236.136719 251.617188 239.195312 247.296875 242.609375 242.785156 C 242.734375 242.617188 242.890625 242.480469 243.070312 242.375 C 243.25 242.269531 243.445312 242.203125 243.652344 242.171875 C 243.859375 242.144531 244.0625 242.15625 244.265625 242.210938 C 244.46875 242.261719 244.652344 242.351562 244.816406 242.476562 C 244.984375 242.605469 245.121094 242.757812 245.226562 242.9375 C 245.332031 243.117188 245.398438 243.3125 245.429688 243.519531 C 245.457031 243.726562 245.445312 243.929688 245.390625 244.132812 C 245.339844 244.335938 245.25 244.519531 245.125 244.683594 Z M 228.21875 270.910156 C 225.675781 275.890625 223.691406 280.652344 222.265625 285.199219 C 222.203125 285.398438 222.105469 285.578125 221.96875 285.738281 C 221.835938 285.898438 221.675781 286.027344 221.492188 286.121094 C 221.304688 286.21875 221.109375 286.277344 220.902344 286.296875 C 220.691406 286.3125 220.488281 286.292969 220.289062 286.230469 C 220.089844 286.167969 219.910156 286.070312 219.75 285.933594 C 219.589844 285.800781 219.460938 285.640625 219.363281 285.457031 C 219.269531 285.269531 219.210938 285.074219 219.191406 284.867188 C 219.171875 284.65625 219.195312 284.453125 219.257812 284.253906 C 220.738281 279.539062 222.789062 274.613281 225.414062 269.476562 C 225.507812 269.292969 225.636719 269.128906 225.792969 268.996094 C 225.953125 268.859375 226.132812 268.757812 226.332031 268.695312 C 226.53125 268.628906 226.734375 268.605469 226.941406 268.625 C 227.148438 268.640625 227.347656 268.695312 227.535156 268.789062 C 227.71875 268.886719 227.878906 269.011719 228.015625 269.171875 C 228.152344 269.332031 228.25 269.507812 228.316406 269.707031 C 228.378906 269.90625 228.40625 270.109375 228.386719 270.320312 C 228.371094 270.527344 228.316406 270.722656 228.21875 270.910156 Z M 219.523438 300.238281 C 219.335938 305.511719 220.066406 310.480469 221.710938 315.152344 C 221.78125 315.347656 221.808594 315.550781 221.796875 315.757812 C 221.785156 315.96875 221.734375 316.167969 221.644531 316.355469 C 221.554688 316.542969 221.433594 316.707031 221.277344 316.847656 C 221.121094 316.988281 220.945312 317.089844 220.746094 317.160156 C 220.550781 317.230469 220.347656 317.257812 220.140625 317.25 C 219.929688 317.238281 219.730469 317.1875 219.542969 317.097656 C 219.355469 317.003906 219.191406 316.882812 219.050781 316.726562 C 218.910156 316.570312 218.804688 316.394531 218.738281 316.199219 C 216.960938 311.152344 216.171875 305.796875 216.375 300.125 C 216.382812 299.917969 216.429688 299.714844 216.515625 299.527344 C 216.601562 299.335938 216.722656 299.171875 216.875 299.027344 C 217.027344 298.886719 217.203125 298.777344 217.398438 298.703125 C 217.59375 298.632812 217.796875 298.597656 218.007812 298.605469 C 218.214844 298.613281 218.414062 298.660156 218.605469 298.746094 C 218.796875 298.835938 218.960938 298.953125 219.105469 299.109375 C 219.246094 299.261719 219.355469 299.433594 219.425781 299.628906 C 219.5 299.828125 219.53125 300.027344 219.523438 300.238281 Z M 229.3125 328.191406 C 232.378906 331.824219 236.167969 335.246094 240.683594 338.457031 C 240.851562 338.578125 240.992188 338.726562 241.105469 338.902344 C 241.214844 339.082031 241.289062 339.273438 241.324219 339.476562 C 241.359375 339.683594 241.351562 339.890625 241.304688 340.09375 C 241.257812 340.296875 241.175781 340.484375 241.054688 340.652344 C 240.933594 340.824219 240.785156 340.964844 240.605469 341.074219 C 240.429688 341.1875 240.238281 341.257812 240.03125 341.292969 C 239.824219 341.328125 239.621094 341.324219 239.417969 341.277344 C 239.214844 341.230469 239.027344 341.144531 238.855469 341.023438 C 234.125 337.660156 230.140625 334.0625 226.902344 330.226562 C 226.765625 330.066406 226.667969 329.886719 226.605469 329.6875 C 226.542969 329.488281 226.519531 329.285156 226.535156 329.074219 C 226.554688 328.867188 226.609375 328.671875 226.707031 328.484375 C 226.800781 328.300781 226.929688 328.140625 227.089844 328.003906 C 227.25 327.871094 227.429688 327.769531 227.628906 327.707031 C 227.828125 327.644531 228.03125 327.621094 228.238281 327.636719 C 228.449219 327.65625 228.644531 327.714844 228.832031 327.808594 C 229.015625 327.90625 229.175781 328.03125 229.3125 328.191406 Z M 254.046875 346.324219 C 258.414062 348.476562 263.199219 350.511719 268.398438 352.421875 C 268.597656 352.492188 268.769531 352.601562 268.925781 352.742188 C 269.078125 352.882812 269.199219 353.050781 269.285156 353.238281 C 269.375 353.429688 269.421875 353.628906 269.429688 353.835938 C 269.4375 354.046875 269.40625 354.246094 269.335938 354.445312 C 269.261719 354.640625 269.15625 354.816406 269.015625 354.96875 C 268.871094 355.121094 268.707031 355.242188 268.515625 355.332031 C 268.328125 355.417969 268.128906 355.464844 267.917969 355.476562 C 267.710938 355.484375 267.507812 355.453125 267.3125 355.378906 C 262.007812 353.429688 257.121094 351.351562 252.652344 349.148438 C 252.464844 349.058594 252.300781 348.933594 252.164062 348.773438 C 252.023438 348.617188 251.921875 348.441406 251.855469 348.242188 C 251.789062 348.042969 251.761719 347.839844 251.773438 347.632812 C 251.789062 347.425781 251.839844 347.226562 251.933594 347.039062 C 252.027344 346.851562 252.152344 346.6875 252.308594 346.550781 C 252.464844 346.414062 252.644531 346.3125 252.839844 346.242188 C 253.039062 346.175781 253.242188 346.148438 253.449219 346.164062 C 253.660156 346.175781 253.859375 346.230469 254.046875 346.324219 Z M 254.046875 346.324219 " fill-opacity="1" fill-rule="nonzero"/></g></svg>