<svg xmlns="http://www.w3.org/2000/svg" xmlns:xlink="http://www.w3.org/1999/xlink" width="500" zoomAndPan="magnify" viewBox="0 0 375 374.999991" height="500" preserveAspectRatio="xMidYMid meet" version="1.0"><defs><clipPath id="eed73a255c"><path d="M 24.957031 250 L 53 250 L 53 339 L 24.957031 339 Z M 24.957031 250 " clip-rule="nonzero"/></clipPath><clipPath id="a1f948bedc"><path d="M 322 36 L 349.707031 36 L 349.707031 125 L 322 125 Z M 322 36 " clip-rule="nonzero"/></clipPath></defs><g clip-path="url(#eed73a255c)"><path fill="#ffffff" d="M 48.003906 250.199219 L 29.566406 250.199219 C 27 250.199219 24.957031 252.242188 24.957031 254.757812 L 24.957031 333.605469 C 24.957031 336.121094 27 338.214844 29.566406 338.214844 L 48.003906 338.214844 C 50.570312 338.214844 52.613281 336.171875 52.613281 333.605469 L 52.613281 254.757812 C 52.558594 252.242188 50.515625 250.199219 48.003906 250.199219 Z M 48.003906 250.199219 " fill-opacity="1" fill-rule="nonzero"/></g><g clip-path="url(#a1f948bedc)"><path fill="#ffffff" d="M 345.097656 36.542969 L 326.660156 36.542969 C 324.09375 36.542969 322.050781 38.585938 322.050781 41.152344 L 322.050781 120.003906 C 322.050781 122.570312 324.09375 124.613281 326.660156 124.613281 L 345.097656 124.613281 C 347.609375 124.613281 349.707031 122.570312 349.707031 120.003906 L 349.707031 41.152344 C 349.707031 38.585938 347.664062 36.542969 345.097656 36.542969 Z M 345.097656 36.542969 " fill-opacity="1" fill-rule="nonzero"/></g><path fill="#ffffff" d="M 223.523438 124.613281 C 208.019531 124.613281 194.453125 133.152344 187.332031 145.832031 C 180.257812 133.207031 166.691406 124.613281 151.1875 124.613281 C 128.246094 124.613281 109.652344 143.160156 109.652344 166.160156 C 109.652344 205.980469 187.332031 260.570312 187.332031 260.570312 C 187.332031 260.570312 265.007812 205.980469 265.007812 166.160156 C 265.007812 143.214844 246.464844 124.613281 223.523438 124.613281 Z M 218.757812 199.011719 C 218.757812 200.269531 217.761719 201.261719 216.503906 201.261719 L 196.289062 201.261719 L 196.289062 221.488281 C 196.289062 222.746094 195.292969 223.738281 194.035156 223.738281 L 180.574219 223.738281 C 179.316406 223.738281 178.320312 222.746094 178.320312 221.488281 L 178.320312 201.261719 L 158.101562 201.261719 C 156.847656 201.261719 155.851562 200.269531 155.851562 199.011719 L 155.851562 185.546875 C 155.851562 184.289062 156.847656 183.292969 158.101562 183.292969 L 178.320312 183.292969 L 178.320312 163.070312 C 178.320312 161.8125 179.316406 160.816406 180.574219 160.816406 L 194.035156 160.816406 C 195.292969 160.816406 196.289062 161.8125 196.289062 163.070312 L 196.289062 183.292969 L 216.503906 183.292969 C 217.761719 183.292969 218.757812 184.289062 218.757812 185.546875 Z M 218.757812 199.011719 " fill-opacity="1" fill-rule="nonzero"/><path fill="#ffffff" d="M 246.78125 286.664062 C 244.160156 285.25 241.230469 285.039062 238.558594 285.980469 L 178.058594 307.671875 C 174.96875 309.347656 171.40625 310.292969 167.6875 310.292969 L 139.035156 310.292969 C 136.15625 310.292969 133.800781 307.933594 133.800781 305.050781 C 133.800781 302.171875 136.15625 299.8125 139.035156 299.8125 L 167.6875 299.8125 C 169.574219 299.8125 171.40625 299.339844 172.980469 298.554688 C 173.1875 298.398438 173.449219 298.242188 173.710938 298.136719 C 176.070312 296.667969 177.746094 294.363281 178.164062 291.691406 C 178.636719 288.757812 177.851562 285.875 175.964844 283.625 C 174.078125 281.421875 171.355469 280.167969 168.472656 280.167969 L 141.183594 280.167969 C 133.011719 280.167969 124.84375 277.230469 118.191406 271.941406 C 108.394531 264.132812 88.910156 253.917969 63.035156 266.804688 L 63.035156 321.609375 C 71.675781 322.289062 84.929688 324.542969 102.058594 331.25 C 122.277344 339.160156 143.804688 340.992188 164.285156 336.539062 C 185.445312 331.929688 217.03125 322.550781 247.304688 304.003906 C 249.503906 302.640625 251.128906 300.335938 251.757812 297.71875 C 252.804688 293.316406 250.761719 288.757812 246.78125 286.664062 Z M 246.78125 286.664062 " fill-opacity="1" fill-rule="nonzero"/><path fill="#ffffff" d="M 210.378906 38.21875 C 189.214844 42.828125 157.632812 52.207031 127.355469 70.753906 C 125.15625 72.117188 123.53125 74.421875 122.90625 77.042969 C 121.855469 81.441406 123.953125 86 127.933594 88.097656 C 130.550781 89.511719 133.484375 89.71875 136.15625 88.777344 L 196.652344 67.085938 C 199.746094 65.410156 203.304688 64.414062 207.078125 64.414062 L 235.730469 64.414062 C 238.609375 64.414062 240.964844 66.773438 240.964844 69.652344 C 240.964844 72.535156 238.609375 74.894531 235.730469 74.894531 L 207.078125 74.894531 C 205.191406 74.894531 203.410156 75.363281 201.839844 76.152344 C 201.578125 76.308594 201.316406 76.464844 201.054688 76.621094 C 198.695312 78.089844 197.074219 80.394531 196.601562 83.015625 C 196.128906 85.949219 196.914062 88.828125 198.800781 91.082031 C 200.6875 93.28125 203.410156 94.539062 206.292969 94.539062 L 233.582031 94.539062 C 241.753906 94.539062 249.921875 97.472656 256.574219 102.765625 C 266.371094 110.574219 285.855469 120.839844 311.730469 107.953125 L 311.730469 53.152344 C 303.089844 52.46875 289.835938 50.214844 272.707031 43.511719 C 252.386719 35.546875 230.859375 33.765625 210.378906 38.21875 Z M 210.378906 38.21875 " fill-opacity="1" fill-rule="nonzero"/></svg>